<?xml version="1.0" encoding="UTF-8"?>
<svg xmlns="http://www.w3.org/2000/svg" xmlns:xlink="http://www.w3.org/1999/xlink" width="25pt" height="25pt" viewBox="0 0 25 25" version="1.1">
<g id="surface1">
<path style=" stroke:none;fill-rule:nonzero;fill:rgb(0%,0%,0%);fill-opacity:1;" d="M 21.355469 9.375 L 19.792969 9.375 L 19.792969 7.292969 C 19.792969 3.269531 16.519531 0 12.5 0 C 8.480469 0 5.207031 3.269531 5.207031 7.292969 L 5.207031 9.375 L 3.644531 9.375 C 3.359375 9.375 3.125 9.609375 3.125 9.894531 L 3.125 22.917969 C 3.125 24.066406 4.058594 25 5.207031 25 L 19.792969 25 C 20.941406 25 21.875 24.066406 21.875 22.917969 L 21.875 9.894531 C 21.875 9.609375 21.640625 9.375 21.355469 9.375 Z M 14.058594 20.253906 C 14.074219 20.402344 14.027344 20.550781 13.929688 20.660156 C 13.832031 20.769531 13.691406 20.832031 13.542969 20.832031 L 11.457031 20.832031 C 11.308594 20.832031 11.167969 20.769531 11.070312 20.660156 C 10.972656 20.550781 10.925781 20.402344 10.941406 20.253906 L 11.269531 17.300781 C 10.734375 16.914062 10.417969 16.296875 10.417969 15.625 C 10.417969 14.476562 11.351562 13.542969 12.5 13.542969 C 13.648438 13.542969 14.582031 14.476562 14.582031 15.625 C 14.582031 16.296875 14.265625 16.914062 13.730469 17.300781 Z M 16.667969 9.375 L 8.332031 9.375 L 8.332031 7.292969 C 8.332031 4.996094 10.203125 3.125 12.5 3.125 C 14.796875 3.125 16.667969 4.996094 16.667969 7.292969 Z M 16.667969 9.375 "/>
</g>
</svg>
